<?xml version="1.0" encoding="utf-8"?>
<!-- Generator: Adobe Illustrator 24.2.3, SVG Export Plug-In . SVG Version: 6.00 Build 0)  -->
<svg version="1.1" id="Layer_1" xmlns="http://www.w3.org/2000/svg" xmlns:xlink="http://www.w3.org/1999/xlink" x="0px" y="0px"
	 viewBox="0 0 330.1 582.1" style="enable-background:new 0 0 330.1 582.1;" xml:space="preserve">
<style type="text/css">
	.st0{opacity:0.8;}
	.st1{fill:none;stroke:#6B3542;stroke-width:16;stroke-linecap:round;stroke-miterlimit:10;}
</style>
<g id="Layer_2_1_" class="st0">
	<g id="Layer_1-2">
		<g id="Layer_2-2">
			<g id="Graphic_Elements">
				<path class="st1" d="M336,462.8V119.1c-0.9-22.5-25.2-41.1-56.5-43.4l-2.2-0.2v-1.9c0-11.4-9.5-22.4-26.9-31.1
					C233,33.8,208.8,28,182.4,26.2l-0.7,0l-6.2-3.5c-4.3-2.4-8.1-5.5-11.2-9.1c-2.7,3.4-5.8,5.8-10.7,9.1l-6.8,3.4l-1,0.3
					c-26,1.9-49.7,7.8-66.8,16.5c-16.9,8.6-26.2,19.6-26.2,30.8v1.9l-2.2,0.2C19.3,77.9-5,96.6-5.9,119.1v343.7l0.1,1.1
					c0.7,10.7,6.9,20.9,17.2,28.7s24.3,12.7,39.2,13.8l2.2,0.1v1.9c0,11.4,9.5,22.4,26.9,31.1c17.5,8.8,41.7,14.6,68.1,16.4h0.7
					l6.2,3.5c4.3,2.4,8.1,5.5,11.2,9.2c2.4-2.9,5.3-5.5,8.6-7.7c1.3-0.9,2.7-1.8,4.1-2.5l4.3-2.2c0.3-0.2,0.7-0.3,1-0.4l0,0
					c0.4-0.1,0.7-0.2,1.1-0.2c25.7-2,49.2-7.8,66.2-16.5s26.2-19.6,26.2-30.8v-1.9l2.2-0.2c14.9-1.1,28.8-6,39.2-13.8
					c10.3-7.8,16.5-18,17.2-28.7L336,462.8z"/>
			</g>
		</g>
	</g>
</g>
</svg>
