<?xml version="1.0" encoding="utf-8"?>
<!-- Generator: Adobe Illustrator 24.2.3, SVG Export Plug-In . SVG Version: 6.00 Build 0)  -->
<svg version="1.1" id="Layer_1" xmlns="http://www.w3.org/2000/svg" xmlns:xlink="http://www.w3.org/1999/xlink" x="0px" y="0px"
	 viewBox="0 0 789.7 479" style="enable-background:new 0 0 789.7 479;" xml:space="preserve">
<style type="text/css">
	.st0{display:none;opacity:0.12;}
	.st1{display:inline;}
	.st2{display:inline;fill:#0C0C0C;}
	.st3{display:inline;fill:#181818;}
	.st4{display:inline;fill:#242424;}
	.st5{display:inline;fill:#313131;}
	.st6{display:inline;fill:#3D3D3D;}
	.st7{display:inline;fill:#494949;}
	.st8{display:inline;fill:#555555;}
	.st9{display:inline;fill:#616161;}
	.st10{display:inline;fill:#6D6D6D;}
	.st11{display:inline;fill:#797979;}
	.st12{display:inline;fill:#868686;}
	.st13{display:inline;fill:#929292;}
	.st14{display:inline;fill:#9E9E9E;}
	.st15{display:inline;fill:#AAAAAA;}
	.st16{display:inline;fill:#B6B6B6;}
	.st17{display:inline;fill:#C2C2C2;}
	.st18{display:inline;fill:#CECECE;}
	.st19{display:inline;fill:#DBDBDB;}
	.st20{display:inline;fill:#E7E7E7;}
	.st21{display:inline;fill:#F3F3F3;}
	.st22{display:inline;fill:#FFFFFF;}
	.st23{fill:none;stroke:#530A27;stroke-width:16;stroke-linecap:round;stroke-miterlimit:10;}
</style>
<g>
	<g id="Layer_2_1_">
		<g id="Graphic_Elements">
			<g class="st0">
				<path class="st1" d="M164.2,475h459.6h2c33.6-1.3,61.5-34.8,64.9-78l0.2-3h2.5h0.3c17,0,33.4-13.2,46.5-37.1
					c13.1-24.2,21.8-57.6,24.5-94.1l0.1-0.9l5.3-8.5c2.9-4.7,7.5-10.9,13.7-15.5c-5.1-3.7-8.7-8-13.6-14.8l-5.1-9.4l-0.4-1.4
					c-2.9-35.8-11.7-68.5-24.7-92.1c-12.9-23.3-29.2-36.2-46-36.2h-3.2l-0.2-3c-3.3-42.7-30.9-75.8-64.1-77H164.2l-1.7,0.1
					c-16,1-31.2,9.5-42.9,23.8C108,42.2,100.7,61.5,99.1,82l-0.2,3h-2.6h-0.4c-16.9,0-33.3,13.1-46.3,37
					c-13.1,24.1-21.8,57.4-24.4,93.8l-0.1,0.9l-5.3,8.5c-2.9,4.7-7.5,11-13.6,15.5c4.3,3.2,7.5,6.7,11.5,11.8
					c1.4,1.8,2.6,3.7,3.7,5.7l3.6,6.5l0.4,1.4c2.9,35.7,11.7,68.3,24.7,91.8C63,381.2,79.2,394,95.9,394h3l0.2,3
					c1.6,20.6,8.9,39.8,20.5,54.1c11.6,14.3,26.9,22.8,42.9,23.8L164.2,475z"/>
				<path class="st2" d="M164.3,475h459.2h2c33.5-1.2,61.4-34.7,64.7-77.9l0.6-3.1h2.5h0.3c16.9,0,33-13,45.9-36.9
					c13.1-24.1,21.8-57.4,24.4-93.8l0.1-0.9l5.3-8.5c3.6-5.9,8.2-11.2,13.6-15.5c-5.1-3.7-8.7-8-13.6-14.7l-5.1-9.3l-0.4-1.4
					c-2.9-35.7-11.6-68.4-24.7-91.9C726.2,97.8,709.9,85,693.2,85h-2l-0.2-3c-3.4-43.2-31.2-76.7-64.8-78H163.9l-1.7,0.1
					c-16,1-31.2,9.5-42.9,23.8S100.3,61.4,98.7,82l-0.2,3H97h-0.3c-17,0-33.5,13.2-46.5,37.1c-13.2,24.2-21.8,57.6-24.5,94.1
					l-0.1,0.9l-5.3,8.5c-2.9,4.7-7.5,10.9-13.7,15.5c4.3,3.2,7.6,6.7,11.5,11.9c1.4,1.8,2.6,3.7,3.7,5.7l3.6,6.6l0.4,1.4
					c2.9,35.8,11.7,68.5,24.7,92.1c12.9,23.4,29.2,36.2,46,36.2h3.1l0.2,3c1.6,20.3,8.8,39.3,20.3,53.5
					c11.5,14.2,26.5,22.5,42.3,23.5L164.3,475z"/>
				<path class="st3" d="M165.2,475h457.9h2c33.5-1.2,61.3-34.7,64.6-77.7l0.9-3.3h2.6h0.3c16.9,0,32.5-12.8,45.5-36.6
					c13.1-24.1,21.7-57.3,24.3-93.5l0.1-0.9l5.3-8.5c2.9-4.7,7.5-10.9,13.6-15.4c-5.1-3.7-8.6-8-13.6-14.7l-5.1-9.3l-0.4-1.4
					c-2.9-35.6-11.6-68.2-24.6-91.6c-12.8-23.2-29.1-36-45.7-36H690l-0.2-3c-3.4-43.2-31.2-76.7-64.9-78L165.1,5l-1.7,0.1
					c-16,1-31.2,9.5-42.8,23.8C108.9,43.2,101.6,62.5,100,83l-0.2,3h-2.5h-0.3c-16.8,0-33.2,13.1-46.1,36.9
					c-13.1,24-21.7,57.2-24.3,93.4l-0.1,0.9l-5.3,8.5c-2.9,4.7-7.5,10.9-13.6,15.4c4.3,3.2,7.5,6.7,11.4,11.8
					c1.4,1.8,2.6,3.7,3.7,5.7l3.6,6.5l0.4,1.4c2.9,35.6,11.6,68.1,24.6,91.6c12.8,23.2,29,36,45.7,36h2.9l0.2,3
					c1.6,20.6,8.9,39.8,20.5,54.1s26.9,22.7,42.9,23.7L165.2,475z"/>
				<path class="st4" d="M165.2,475h457.5h2c33.4-1.2,61.2-34.6,64.5-77.6l1.3-3.4h2.5h0.3c16.9,0,32.2-12.7,45.1-36.5
					c13.1-24.1,21.7-57.3,24.3-93.6l0.1-0.9l5.2-8.5c2.9-4.7,7.5-10.9,13.6-15.4c-5.1-3.7-8.7-8-13.6-14.7l-5.2-9.3l-0.4-1.4
					c-2.9-35.6-11.6-68.2-24.6-91.7c-12.9-23.2-29.1-36-45.7-36h-2.7l-0.2-3C686,39.8,658.2,6.3,624.5,5H165.6l-1.7,0.1
					c-16,1-31.2,9.5-42.9,23.8S102.1,62.4,100.5,83l-0.2,3H98h-0.3c-16.9,0-33.3,13.1-46.3,37c-13.1,24.1-21.8,57.4-24.4,93.7
					l-0.1,0.9l-5.3,8.5c-2.9,4.7-7.5,10.9-13.6,15.5c4.3,3.2,7.6,6.7,11.5,11.8c1.4,1.8,2.6,3.7,3.7,5.7l3.6,6.5l0.4,1.4
					c2.9,35.7,11.6,68.4,24.6,91.9C64.7,382.3,81,395,97.6,395h3l0.2,3c1.6,20.3,8.8,39.3,20.3,53.4c11.5,14.1,26.5,22.5,42.3,23.5
					L165.2,475z"/>
				<path class="st5" d="M165.7,475h456.7h2c33.4-1.2,61.1-34.5,64.4-77.5l1.7-3.5h2.4h0.3c16.9,0,31.8-12.6,44.8-36.4
					c13.1-24,21.7-57.3,24.4-93.6l0.1-0.9l5.3-8.5c2.9-4.7,7.5-10.9,13.6-15.4c-5.1-3.7-8.7-8-13.6-14.7l-5.1-9.3l-0.4-1.4
					c-2.9-35.7-11.6-68.2-24.6-91.7c-12.9-23.2-29.1-36-45.7-36h-2.9l-0.2-3c-3.3-42.7-30.9-75.8-64-77l-458.9,0l-1.7,0.1
					c-15.8,1-30.8,9.3-42.3,23.5s-18.7,33.1-20.3,53.4l-0.2,3h-2.6h-0.3c-16.9,0-33.3,13.1-46.3,37c-13.1,24.1-21.8,57.4-24.4,93.8
					l-0.1,0.9l-5.3,8.4c-2.9,4.7-7.5,10.9-13.6,15.5c4.3,3.2,7.6,6.7,11.5,11.8c1.4,1.8,2.6,3.7,3.7,5.7l3.6,6.5l0.4,1.4
					c2.9,35.7,11.6,68.3,24.7,91.8C65.3,382.2,81.6,395,98.2,395h2.9l0.2,3c1.6,20.3,8.8,39.3,20.3,53.5
					c11.5,14.1,26.5,22.5,42.4,23.5L165.7,475z"/>
				<path class="st6" d="M166.1,475H622h2c33.3-1.2,61-34.5,64.3-77.3l2-3.7h2.5h0.3c16.8,0,31.4-12.4,44.3-36.1
					c13-24,21.7-57.2,24.3-93.4l0.1-0.9l5.3-8.4c3.5-5.9,8.1-11.1,13.6-15.4c-5-3.7-8.6-8-13.6-14.7l-5.1-9.3l-0.4-1.4
					c-2.9-35.5-11.6-68-24.5-91.4c-12.8-23.2-29-36-45.6-36h-2.9l-0.2-3c-3.4-42.7-30.9-75.8-64-77H166.1l-1.7,0.1
					c-15.8,1-30.9,9.3-42.3,23.5s-18.7,33.1-20.3,53.4l-0.2,3H99h-0.3c-16.8,0-33.2,13.1-46.2,36.9c-13,24-21.7,57.2-24.3,93.5
					l-0.1,0.9l-5.2,8.5c-3.6,5.9-8.2,11.1-13.6,15.3c4.3,3.2,7.5,6.7,11.4,11.8c1.4,1.8,2.6,3.7,3.7,5.7l3.6,6.5l0.4,1.4
					c2.9,35.6,11.6,68.1,24.6,91.6c12.8,23.2,29,36,45.7,36h2.9l0.2,3c1.6,20.3,8.8,39.3,20.3,53.5c11.5,14.1,26.5,22.5,42.3,23.5
					L166.1,475z"/>
				<path class="st7" d="M166.6,475h454.6h2c33.7-1.2,61.6-34.8,65-78.2l2.4-3.8h2.1h0.4c16.8,0,31-12.2,43.8-35.9
					c13-24,21.6-57,24.2-93.1l0.1-0.9l5.2-8.4c3.5-5.9,8.1-11.1,13.5-15.4c-5-3.7-8.6-8-13.5-14.6l-5.1-9.3l-0.4-1.4
					c-2.9-35.4-11.6-67.8-24.5-91.2c-12.8-23.1-29-35.9-45.5-35.9h-3l-0.2-3c-3.3-42.7-30.8-75.8-64-77H166.5l-1.7,0.1
					c-15.8,1-30.8,9.3-42.3,23.5c-11.5,14.1-18.7,33.2-20.3,53.4l-0.2,3h-2.5h-0.3c-16.8,0-33.2,13.1-46.1,36.9
					c-13,24.1-21.7,57.2-24.3,93.5l-0.1,0.9l-5.2,8.5c-3.6,5.9-8.2,11.1-13.6,15.4c4.3,3.2,7.5,6.7,11.4,11.8
					c1.4,1.8,2.6,3.7,3.7,5.7l3.6,6.5l0.4,1.4c2.9,35.6,11.6,68.1,24.6,91.5c12.8,23.2,29.1,36,45.7,36h2.8l0.2,3
					c1.6,20.3,8.8,39.4,20.3,53.5s26.6,22.5,42.4,23.5H166.6z"/>
				<path class="st8" d="M167,474h454.2h1.9c33.2-1.2,60.8-34.4,64-77.1l2.8-3.9h2.6h0.3c16.7,0,30.5-12,43.3-35.6
					c13-23.9,21.6-56.8,24.1-92.8l0.1-0.9l5.2-8.4c3.5-5.9,8.1-11.1,13.5-15.4c-5-3.7-8.6-7.9-13.5-14.6l-5.1-9.3l-0.4-1.4
					c-2.9-35.3-11.5-67.6-24.4-90.9C723,100.7,706.9,88,690.4,88h-2.9l-0.2-3c-3.3-42.7-30.8-75.8-64-77L167,8l-1.7,0.1
					c-15.8,1-30.8,9.3-42.3,23.5S104.3,64.7,102.7,85l-0.2,3h-2.6h-0.3c-16.7,0-33,13-45.9,36.6c-13,23.9-21.5,56.9-24.2,92.8
					l-0.1,0.9l-5.2,8.4c-3.5,5.9-8.1,11.1-13.5,15.3c4.3,3.1,7.5,6.7,11.3,11.7c1.4,1.8,2.6,3.7,3.7,5.6l3.6,6.5l0.4,1.4
					c2.9,35.4,11.5,67.7,24.4,90.9c12.7,23,28.9,35.7,45.4,35.7h2.9l0.2,3c1.6,20.3,8.8,39.4,20.3,53.5s26.6,22.5,42.4,23.5H167z"/>
				<path class="st9" d="M167.5,474h453.4h1.9c33.2-1.2,60.7-34.3,64-76.9l3.1-4.1h2.5h0.3c16.7,0,30.1-11.9,43-35.5
					c13-23.9,21.6-56.9,24.2-92.9l0.1-0.9l5.2-8.4c2.9-4.7,7.4-10.8,13.5-15.3c-5-3.7-8.6-7.9-13.5-14.6l-5.1-9.3l-0.4-1.4
					c-2.9-35.4-11.5-67.7-24.4-91C722.5,100.8,706.4,88,689.9,88h-2.8l-0.2-3C683.5,42.4,656,9.3,622.8,8H167.5l-1.7,0.1
					c-15.8,1-30.8,9.3-42.3,23.4S104.8,64.7,103.2,85l-0.2,3h-2.5h-0.3c-16.7,0-33,13-45.8,36.6c-13,23.9-21.6,56.8-24.2,92.8
					l-0.1,0.9l-5.2,8.4c-2.9,4.7-7.4,10.8-13.5,15.3c4.3,3.1,7.5,6.7,11.3,11.7c1.4,1.8,2.6,3.7,3.7,5.6l3.5,6.5l0.4,1.4
					c2.9,35.4,11.5,67.7,24.4,90.9c12.8,23,28.9,35.7,45.4,35.7h2.8l0.2,3c1.6,20.3,8.8,39.3,20.3,53.5S150,473,165.8,474H167.5z"/>
				<path class="st10" d="M167.9,475h452.2h2c33.5-1.2,61.3-34.7,64.6-77.7l3.5-4.3h2h0.3c16.7,0,29.8-11.8,42.6-35.4
					c13-23.9,21.6-56.9,24.2-92.9l0.1-0.9l5.2-8.4c2.9-4.7,7.4-10.8,13.5-15.3c-5-3.7-8.6-7.9-13.5-14.6l-5.1-9.3l-0.4-1.4
					c-2.9-35.4-11.5-67.7-24.4-91c-12.8-23-28.9-35.8-45.4-35.8h-3l-0.2-3c-3.3-42.1-30.5-74.9-63.3-76H168h-1.7
					c-15.8,1-30.9,9.4-42.4,23.5S105.2,65.6,103.6,86l-0.2,3H101h-0.3c-16.7,0-33,13-45.8,36.6c-13,23.9-21.6,56.8-24.1,92.8
					l-0.1,0.9l-5.2,8.4c-3.5,5.9-8.1,11-13.5,15.3c4.3,3.1,7.5,6.6,11.3,11.7c1.4,1.8,2.6,3.7,3.7,5.7l3.6,6.5l0.4,1.4
					c2.9,35.4,11.5,67.7,24.4,91c12.8,23,28.9,35.7,45.4,35.7h3.1l0.2,3c1.6,20.1,8.7,38.9,20,52.8s26.2,22.2,41.8,23.2L167.9,475z"
					/>
				<path class="st11" d="M168.4,474h451.7h1.9c33-1.2,60.5-34.2,63.8-76.7l3.8-4.3h2.5h0.3c16.7,0,29.3-11.6,42.1-35.2
					c13-23.8,21.5-56.7,24.1-92.6l0.1-0.9l5.2-8.4c3.5-5.9,8.1-11.1,13.5-15.3c-5-3.7-8.6-7.9-13.5-14.5l-5.1-9.2l-0.4-1.4
					c-2.9-35.3-11.5-67.6-24.4-90.8c-12.7-23-28.8-35.7-45.3-35.7h-2.7l-0.2-3c-3.3-42.7-30.8-75.8-64-77H168.4l-1.7,0.1
					c-15.8,1-30.8,9.3-42.3,23.5S105.7,65.7,104.1,86l-0.2,3h-2.4h-0.3c-16.7,0-32.9,13-45.7,36.5c-12.9,23.8-21.5,56.7-24.1,92.5
					l-0.1,0.9l-5.2,8.4c-3.5,5.9-8.1,11-13.5,15.3c4.3,3.1,7.4,6.6,11.3,11.7c1.4,1.8,2.6,3.7,3.7,5.6l3.5,6.5l0.4,1.4
					c2.8,35.2,11.5,67.4,24.3,90.6c12.7,23,28.8,35.6,45.2,35.6h2.7l0.2,3c1.6,20.3,8.8,39.3,20.3,53.5
					c11.5,14.1,26.5,22.4,42.4,23.4L168.4,474z"/>
				<path class="st12" d="M168.9,474h450.9h1.9c33-1.2,60.3-34.1,63.6-76.5l4.2-4.5h2.6h0.3c16.7,0,28.9-11.4,41.7-35
					c12.9-23.8,21.4-56.6,24-92.4l0.1-0.9l5.2-8.4c3.5-5.8,8.1-11,13.4-15.2c-5-3.7-8.5-7.9-13.4-14.5l-5.1-9.2l-0.4-1.4
					c-2.8-35.2-11.5-67.3-24.3-90.5c-12.7-23-28.7-35.6-45.2-35.6h-2.7l-0.2-3c-3.3-42.7-30.9-75.8-64.1-77h-453l-1.7,0
					c-15.6,1-30.5,9.2-41.8,23.2s-18.5,32.7-20,52.8l-0.2,2.9h-2.7h-0.3c-16.7,0-32.9,13-45.7,36.5c-12.9,23.8-21.5,56.6-24,92.5
					l-0.1,0.9l-5.2,8.4c-3.5,5.9-8.1,11-13.5,15.3c4.3,3.1,7.4,6.6,11.3,11.7c1.4,1.8,2.6,3.7,3.7,5.6l3.5,6.5l0.4,1.4
					c2.8,35.3,11.5,67.4,24.3,90.7c12.7,23,28.8,35.6,45.2,35.6h2.6l0.2,3c1.6,20.3,8.8,39.3,20.3,53.4
					c11.5,14.1,26.5,22.5,42.3,23.5L168.9,474z"/>
				<path class="st13" d="M168.9,474h450.5h1.9c32.9-1.2,60.2-34.1,63.5-76.4l4.5-4.6h2.5h0.3c16.7,0,28.5-11.3,41.3-34.8
					c12.9-23.8,21.5-56.6,24-92.4l0.1-0.9l5.2-8.4c3.5-5.9,8.1-11,13.4-15.2c-5-3.7-8.5-7.9-13.4-14.5l-5.1-9.2l-0.4-1.4
					c-2.9-35.2-11.5-67.4-24.3-90.5C720.3,102.7,704.3,90,687.9,90h-2.9l-0.2-2.9C681.4,45,654.2,12.3,621.5,11H168.9l-1.7,0.1
					c-15.6,1-30.5,9.2-41.8,23.2s-18.5,32.7-20,52.8l-0.2,2.9h-2.6h-0.3c-16.7,0-32.9,13-45.7,36.5c-12.9,23.8-21.5,56.7-24.1,92.5
					l-0.1,0.9l-5.2,8.4c-3.5,5.9-8.1,11-13.5,15.3c4.3,3.1,7.4,6.6,11.3,11.7c1.4,1.8,2.6,3.7,3.7,5.6l3.5,6.4l0.4,1.4
					c2.8,35.2,11.5,67.5,24.3,90.7c12.7,23,28.8,35.6,45.2,35.6h2.9l0.2,3c1.6,20.1,8.7,38.8,20,52.8s26.2,22.2,41.8,23.2L168.9,474
					z"/>
				<path class="st14" d="M169.8,474H619h1.9c32.9-1.2,60.1-34,63.4-76.3l4.9-4.7h2.5h0.3c16.6,0,28.1-11.1,40.8-34.6
					c12.9-23.7,21.4-56.4,24-92.2l0.1-0.9l5.2-8.3c3.5-5.8,8-11,13.4-15.2c-5-3.7-8.5-7.9-13.4-14.5l-5-9.2l-0.4-1.4
					c-2.8-35.1-11.4-67.2-24.2-90.3c-12.7-22.9-28.7-35.5-45-35.5H685l-0.2-3c-3.3-42.7-30.9-75.8-64.1-77H169.4l-1.7,0.1
					c-15.6,1-30.4,9.2-41.8,23.2s-18.5,32.7-20,52.8l-0.2,2.9h-2.6h-0.3c-16.6,0-32.8,12.9-45.6,36.4c-12.9,23.7-21.4,56.5-24,92.3
					l-0.1,0.9l-5.1,8.2c-3.5,5.9-8.1,11-13.4,15.2c4.2,3.1,7.4,6.6,11.3,11.6c1.4,1.8,2.6,3.7,3.7,5.6l3.5,6.4l0.4,1.4
					c2.8,35.1,11.4,67.2,24.3,90.4c12.7,22.9,28.7,35.5,45.1,35.5h2.5l0.2,3c1.6,20.3,8.8,39.4,20.3,53.5
					c11.5,14.1,26.5,22.5,42.4,23.5L169.8,474z"/>
				<path class="st15" d="M169.8,473h448.9h1.9c32.8-1.2,60-34,63.3-76.1l5.3-4.9h2.6h0.3c16.6,0,27.6-11,40.3-34.3
					c12.8-23.6,21.3-56.3,23.9-91.9l0.1-0.9l5.2-8.3c3.5-5.8,8-11,13.4-15.2c-5-3.7-8.5-7.8-13.3-14.4l-5-9.2l-0.4-1.4
					c-2.8-35-11.4-67-24.2-90C719.3,103.6,703.4,91,687.1,91h-3.3l-0.2-2.9C680.3,46,653.1,13.2,620.3,12H170.3l-1.7,0.1
					c-15.6,1-30.5,9.2-41.8,23.2s-18.5,32.7-20.1,52.8l-0.3,2.9h-2.9h-0.3c-16.6,0-32.7,12.9-45.4,36.2
					c-12.8,23.7-21.3,56.3-23.9,91.9l-0.1,0.9l-5.2,8.3c-3.5,5.8-8,11-13.4,15.2c4.2,3.1,7.4,6.6,11.2,11.6c1.4,1.8,2.6,3.6,3.6,5.6
					l3.5,6.4l0.4,1.4c2.8,35,11.4,67,24.2,90c12.6,22.8,28.6,35.4,44.9,35.4h2.9l0.2,2.9c1.6,20.1,8.7,38.8,20,52.8
					c11.4,14,26.2,22.2,41.8,23.2L169.8,473z"/>
				<path class="st16" d="M170.3,473h448.1h1.9c32.8-1.2,59.9-33.9,63.2-76l5.6-5h2.5h0.3c16.6,0,27.3-10.8,40-34.2
					c12.9-23.7,21.3-56.3,23.9-92l0.1-0.9l5.1-8.3c3.5-5.8,8-11,13.4-15.2c-5-3.7-8.5-7.8-13.3-14.4l-5-9.2l-0.4-1.4
					c-2.8-35-11.4-67-24.2-90C718.8,103.6,702.8,91,686.5,91h-2.8l-0.2-2.9C680.2,46,653,13.3,620.2,12H170.3l-1.7,0.1
					c-15.6,1-30.5,9.2-41.8,23.2s-18.5,32.7-20,52.8l-0.2,2.9h-2.5h-0.3c-16.6,0-32.7,12.9-45.4,36.3c-12.9,23.6-21.4,56.2-24,91.9
					l-0.1,0.9l-5.2,8.3c-3.5,5.8-8,11-13.4,15.2c4.2,3.1,7.4,6.6,11.2,11.6c1.4,1.8,2.6,3.6,3.6,5.6l3.5,6.4l0.4,1.4
					c2.8,35,11.4,67,24.2,90c12.6,22.8,28.6,35.4,44.9,35.4h2.8l0.2,2.9c1.6,20.1,8.7,38.8,20,52.8s26.2,22.2,41.8,23.2L170.3,473z"
					/>
				<path class="st17" d="M170.8,473H618h1.9c32.7-1.2,59.8-33.8,63.1-75.9l6-5.1h2.6h0.3c16.5,0,26.8-10.7,39.5-34
					c12.8-23.6,21.3-56.2,23.9-91.7l0.1-0.9l5.1-8.3c3.5-5.8,8-10.9,13.3-15.1c-5-3.7-8.5-7.8-13.3-14.4l-5-9.1l-0.4-1.4
					c-2.8-34.9-11.4-66.8-24.1-89.8C718.3,104.6,702.4,92,686,92h-2.8l-0.2-2.9C679.8,47,652.6,14.3,619.8,13H170.7l-1.7,0.1
					c-15.6,1-30.4,9.2-41.8,23.2S108.8,69,107.3,89l-0.2,3h-2.5h-0.3c-16.5,0-32.6,12.8-45.3,36.1c-12.8,23.6-21.3,56.1-23.8,91.6
					l-0.1,0.9l-5.1,8.3c-3.5,5.8-8,10.9-13.3,15.1c4.2,3.1,7.4,6.6,11.2,11.6c1.3,1.8,2.6,3.6,3.6,5.6l3.5,6.4l0.4,1.4
					c2.8,34.9,11.4,66.8,24.1,89.8C72,381.5,87.9,394,104.2,394h2.8l0.2,2.9c1.6,20.1,8.7,38.8,20,52.8s26.2,22.2,41.8,23.2
					L170.8,473z"/>
				<path class="st18" d="M171.2,473h446.4h1.9c32.6-1.2,59.7-33.8,63-75.8l6.3-5.2h2.5h0.3c16.5,0,26.5-10.5,39.2-33.8
					c12.8-23.6,21.3-56.2,23.9-91.7l0.1-0.9l5.1-8.3c3.5-5.8,8-10.9,13.3-15.1c-5-3.7-8.5-7.8-13.3-14.4l-5-9.1l-0.4-1.4
					c-2.8-34.9-11.4-66.8-24.1-89.8C717.7,104.6,701.8,92,685.5,92h-2.6l-0.2-2.9C679.4,47,652.2,14.3,619.4,13H171.2l-1.7,0.1
					c-15.6,1-30.5,9.2-41.8,23.2S109.3,69,107.7,89.1l-0.2,2.9h-2.4h-0.3c-16.5,0-32.6,12.8-45.2,36.1
					c-12.8,23.6-21.3,56.1-23.8,91.6l-0.1,0.9l-5.1,8.3c-2.9,4.6-7.3,10.6-13.3,15.1c4.2,3.1,7.4,6.6,11.2,11.6
					c1.4,1.8,2.6,3.6,3.7,5.6l3.5,6.4l0.4,1.4c2.8,34.9,11.4,66.8,24.1,89.8c12.6,22.8,28.5,35.3,44.8,35.3h2.7l0.2,2.9
					c1.6,20.1,8.7,38.8,20.1,52.8S154,472,169.6,473L171.2,473z"/>
				<path class="st19" d="M171.3,473h445.9h1.9c32.6-1.2,59.6-33.7,62.9-75.6l6.7-5.4h2.5h0.3c16.5,0,26-10.3,38.7-33.6
					c12.8-23.5,21.2-56,23.8-91.5l0.1-0.9l5.1-8.3c3.5-5.8,8-10.9,13.3-15.1c-4.9-3.6-8.5-7.8-13.3-14.4l-5-9.1l-0.4-1.4
					c-2.9-34.8-11.4-66.7-24.1-89.6C717.2,105.5,701.3,93,685.1,93h-2.6l-0.2-2.9C679,48,651.7,15.3,618.9,14H171.6l-1.7,0.1
					c-15.6,1-30.5,9.2-41.8,23.2s-18.4,32.7-20,52.8l-0.2,2.9h-2.3h-0.3c-16.5,0-32.6,12.8-45.3,36.1
					c-12.8,23.6-21.3,56.1-23.8,91.6l-0.1,0.9l-5.1,8.3c-3.5,5.8-8,10.9-13.3,15.1c4.2,3.1,7.4,6.6,11.2,11.5
					c1.3,1.8,2.5,3.6,3.6,5.6l3.5,6.4l0.4,1.4c2.8,34.9,11.4,66.8,24,89.8C73.1,382.5,89,395,105.3,395h2.9l0.2,2.9
					c1.5,19.9,8.6,38.4,19.9,52.2c11.3,13.8,25.9,21.9,41.3,22.9L171.3,473z"/>
				<path class="st20" d="M172,473h444.4h1.9c32.9-1.2,60.2-34.1,63.5-76.4l7.2-5.6h2.1h0.3c16.4,0,25.6-10.2,38.2-33.4
					c12.7-23.5,21.2-55.8,23.7-91.2l0.1-0.9l5.1-8.3c3.5-5.8,8-10.9,13.3-15c-4.9-3.6-8.4-7.8-13.2-14.3l-5-9.1l-0.4-1.4
					c-2.8-34.7-11.3-66.5-24-89.3C716.7,105.5,700.9,93,684.7,93H682l-0.2-2.9C678.5,48,651.3,15.3,618.5,14l-446.4,0l-1.7,0.1
					c-15.6,1-30.5,9.2-41.8,23.2s-18.5,32.7-20,52.7l-0.2,2.9h-2.2h-0.3c-16.5,0-32.6,12.8-45.2,36.1
					c-12.8,23.6-21.3,56.1-23.8,91.6l-0.1,0.9l-5.1,8.3c-3.5,5.8-8,10.9-13.3,15.1c4.2,3.1,7.4,6.6,11.2,11.5
					c1.3,1.7,2.6,3.6,3.6,5.5l3.5,6.4l0.4,1.4c2.8,34.9,11.4,66.8,24.1,89.8c12.6,22.8,28.5,35.3,44.8,35.3h2.8l0.2,2.9
					c1.5,19.8,8.6,38.4,19.8,52.2c11.2,13.8,25.9,21.9,41.3,22.9H172z"/>
				<path class="st21" d="M172.2,473h444.3h1.9c32.5-1.2,59.4-33.6,62.7-75.4l7.4-5.6h2.5h0.3c16.4,0,25.2-10,37.8-33.2
					c12.8-23.5,21.2-55.9,23.7-91.2l0.1-0.9l5.1-8.3c3.5-5.8,8-10.9,13.3-15.1c-4.9-3.6-8.4-7.8-13.2-14.3l-5-9.1l-0.4-1.4
					c-2.8-34.7-11.3-66.5-24-89.4C716.1,106.5,700.3,94,684.1,94h-2.9l-0.2-2.9c-3.2-41.6-30.1-73.9-62.4-75.1H172.2l-1.7,0.1
					c-15.4,1-30.1,9.1-41.3,22.9C118,52.8,111,71.4,109.5,91.1l-0.2,2.9h-2.6h-0.3c-16.5,0-32.5,12.8-45.1,36.1
					c-12.8,23.5-21.2,55.9-23.8,91.3l-0.1,0.9l-5.1,8.3c-3.5,5.8-8,10.9-13.3,15c4.2,3.1,7.4,6.5,11.2,11.5c1.3,1.8,2.5,3.6,3.6,5.5
					l3.5,6.4l0.4,1.4c2.8,34.8,11.3,66.5,24,89.5c12.5,22.7,28.4,35.2,44.6,35.2h2.9l0.2,2.9c1.5,19.8,8.6,38.4,19.8,52.2
					c11.2,13.8,25.9,21.9,41.3,22.9L172.2,473z"/>
				<path class="st22" d="M173.1,473h443.1h1.9c32.4-1.2,59.3-33.5,62.5-75.2l7.8-5.8h2.4h0.3c16.4,0,24.9-9.9,37.5-33.1
					c12.8-23.5,21.2-55.9,23.8-91.3l0.1-0.9l5.1-8.3c3.5-5.8,8-10.9,13.3-15c-4.9-3.6-8.4-7.8-13.3-14.3l-5-9.1l-0.4-1.4
					c-2.8-34.8-11.3-66.5-24-89.4C715.6,106.5,699.7,94,683.5,94h-2.8l-0.2-2.9c-3.2-41.6-30.1-73.9-62.4-75.1H172.6l-1.6,0.1
					c-15.4,1-30.1,9.1-41.3,22.9c-11.2,13.8-18.2,32.3-19.8,52.1l-0.2,2.9h-2.6h-0.3c-16.4,0-32.4,12.8-45,35.9
					c-12.7,23.4-21.1,55.7-23.7,91l-0.1,0.9L33,230c-3.5,5.8-7.9,10.8-13.2,15c4.2,3.1,7.3,6.5,11.1,11.5c1.3,1.7,2.5,3.6,3.6,5.5
					l3.5,6.4l0.4,1.4c2.8,34.7,11.3,66.4,23.9,89.2c12.5,22.6,28.3,35,44.5,35h2.5l0.2,2.9c1.6,20.1,8.7,38.8,20,52.8
					s26.2,22.2,41.8,23.2L173.1,473z"/>
			</g>
			<path class="st23" d="M551.9,427l0-342.4v-1.3c-0.8-22.5-23.1-41.1-51.9-43.4l-2-0.2v-1.7v-0.2c0-11.4-8.8-22.4-24.7-31.1
				C457.2-2,435-7.8,410.7-9.6l-0.6,0l-5.7-3.5c-3.1-2-7.3-5-10.3-9.1c-2.5,3.4-5.3,5.8-9.8,9.1l-6.2,3.4l-1,0.3
				c-23.8,1.9-45.6,7.8-61.3,16.5c-15.5,8.6-24.1,19.6-24.1,30.8v1.9l-2,0.2c-28.8,2.3-51.1,20.9-51.9,43.4l0,343.7l0.1,1.1
				c0.7,10.7,6.3,20.9,15.8,28.7c9.5,7.8,22.3,12.7,36,13.8l2,0.2v1.7v0.2c0,11.4,8.8,22.4,24.7,31.1c16.1,8.8,38.3,14.6,62.6,16.4
				l0.6,0l5.7,3.5c3.1,2,7.3,5,10.3,9.2c2.1-2.9,4.5-5.1,7.9-7.7c1.2-0.9,2.5-1.8,3.8-2.5l3.9-2.2c0.3-0.2,0.6-0.3,0.9-0.4l0,0
				c0.3-0.1,0.6-0.2,1-0.2c23.6-2,45.2-7.8,60.8-16.5c15.5-8.6,24.1-19.6,24.1-30.8v-1.9l2-0.2c13.7-1.1,26.5-5.9,36-13.7
				s15.1-18,15.8-28.7L551.9,427z"/>
		</g>
	</g>
</g>
</svg>
