<svg xmlns="http://www.w3.org/2000/svg" viewBox="0 0 357.88 580.09"><defs><style>.cls-1{opacity:0.8;}.cls-2{fill:none;stroke:#6b3542;stroke-linecap:round;stroke-miterlimit:10;stroke-width:16px;}</style></defs><g id="Layer_2" data-name="Layer 2"><g id="Layer_1-2" data-name="Layer 1"><g id="Layer_2-2" data-name="Layer 2" class="cls-1"><g id="Layer_1-2-2" data-name="Layer 1-2"><g id="Layer_2-2-2" data-name="Layer 2-2"><g id="Graphic_Elements" data-name="Graphic Elements"><path class="cls-2" d="M349.88,461.88V118.16C349,95.67,324.7,77,293.39,74.78l-2.17-.15V72.74c0-11.37-9.55-22.37-26.86-31.07-17.52-8.79-41.71-14.56-68.07-16.36l-.67,0-6.18-3.53a40.46,40.46,0,0,1-11.23-9.14c-2.71,3.41-5.79,5.81-10.7,9.13l-6.78,3.44-1,.29c-26,1.94-49.7,7.81-66.81,16.54C76,50.64,66.66,61.55,66.66,72.76v1.88l-2.17.15C33.21,77,8.91,95.7,8,118.2V461.87L8.08,463c.73,10.72,6.85,20.89,17.23,28.68s24.29,12.68,39.18,13.75l2.17.15v1.88c0,11.37,9.55,22.37,26.88,31.08,17.51,8.79,41.71,14.6,68.13,16.36h.66l6.17,3.54a39.55,39.55,0,0,1,11.23,9.15,39.26,39.26,0,0,1,8.59-7.69,35.33,35.33,0,0,1,4.15-2.49l4.26-2.16a6.3,6.3,0,0,1,1-.39h0a5,5,0,0,1,1.09-.18c25.7-2,49.2-7.82,66.17-16.5s26.23-19.57,26.23-30.77v-1.88l2.18-.16c14.91-1.07,28.84-5.95,39.18-13.75s16.47-18,17.21-28.67Z"/></g></g></g></g></g></g></svg>