<svg xmlns="http://www.w3.org/2000/svg" viewBox="0 0 330.13 582.1"><defs><style>.cls-1{fill:none;stroke:#000;stroke-linecap:round;stroke-miterlimit:10;stroke-width:16px;}</style></defs><g id="Layer_2" data-name="Layer 2"><g id="Layer_1-2" data-name="Layer 1"><g id="Layer_2-2" data-name="Layer 2"><g id="Graphic_Elements" data-name="Graphic Elements"><path class="cls-1" d="M322.12,462.77V119.05c-.83-22.49-23.14-41.14-51.9-43.38l-2-.15V73.63c0-11.37-8.77-22.37-24.68-31.07C227.45,33.77,205.22,28,181,26.2l-.61-.05-5.68-3.53a38.08,38.08,0,0,1-10.32-9.14c-2.49,3.41-5.32,5.81-9.83,9.13l-6.23,3.44-.95.29C123.5,28.28,101.72,34.15,86,42.88c-15.54,8.65-24.1,19.56-24.1,30.77v1.88l-2,.15C31.16,77.93,8.84,96.59,8,119.09L8,462.76l.07,1.15c.67,10.72,6.3,20.89,15.83,28.68s22.32,12.68,36,13.75l2,.15v1.88c0,11.37,8.77,22.37,24.69,31.08,16.09,8.79,38.33,14.6,62.6,16.36l.61,0,5.67,3.54a37.25,37.25,0,0,1,10.32,9.15,37.11,37.11,0,0,1,7.89-7.69,32,32,0,0,1,3.81-2.49l3.92-2.16a5.39,5.39,0,0,1,.93-.39h0a3.88,3.88,0,0,1,1-.18c23.62-2,45.21-7.82,60.8-16.5s24.1-19.57,24.1-30.77v-1.88l2-.16c13.7-1.07,26.5-5.95,36-13.75s15.14-18,15.82-28.67Z"/></g></g></g></g></svg>